<svg width="16" height="16" viewBox="0 0 16 16" fill="none" xmlns="http://www.w3.org/2000/svg">
<path fill-rule="evenodd" clip-rule="evenodd" d="M12.9611 11C13.912 10.9984 14.7293 10.3251 14.913 9.39203L15.913 4.39203C16.0304 3.80524 15.8787 3.19672 15.4998 2.73358C15.1209 2.27039 14.5545 2.00128 13.956 2H4.00005V1C4.00005 0.447693 3.55233 0 3.00005 0H1.00906C0.456779 0 0.00905597 0.447693 0.00905597 1C0.00905597 1.55231 0.456779 2 1.00906 2H2.00906V12C1.19933 11.9964 0.467277 12.4813 0.154899 13.2284C-0.157509 13.9755 0.0113753 14.8372 0.582664 15.411C1.15395 15.9849 2.01488 16.1577 2.76333 15.8486C3.5118 15.5396 4.00005 14.8098 4.00005 14H10.969C10.9734 15.0991 11.8672 15.9869 12.9663 15.9839C14.0654 15.981 14.9545 15.0884 14.953 13.9893C14.9515 12.8902 14.0601 11.9999 12.961 11.9999L4.00005 12V11H12.9611ZM13.9611 4L12.9611 9H4.00005V4H13.956H13.9611Z" fill="#33A0FF"/>
</svg>
