<svg width="9" height="16" viewBox="0 0 9 16" fill="none" xmlns="http://www.w3.org/2000/svg">
<path d="M0.808022 8.0582H2.46648V14.8859C2.46648 15.0207 2.5757 15.1299 2.71051 15.1299H5.52254C5.65733 15.1299 5.76656 15.0207 5.76656 14.8859V8.09038H7.67314C7.7971 8.09038 7.90141 7.99735 7.91557 7.87422L8.20512 5.36061C8.21309 5.29146 8.19121 5.22219 8.14491 5.1703C8.09862 5.11838 8.03232 5.08865 7.96275 5.08865H5.76668V3.51298C5.76668 3.03801 6.02242 2.79715 6.5269 2.79715C6.59879 2.79715 7.96275 2.79715 7.96275 2.79715C8.09758 2.79715 8.2068 2.68787 8.2068 2.55312V0.245832C8.2068 0.111022 8.09758 0.00180259 7.96275 0.00180259H5.9839C5.96996 0.00112292 5.93895 0 5.89326 0C5.54991 0 4.35646 0.067405 3.41371 0.934687C2.36914 1.89579 2.51437 3.04652 2.54906 3.24605V5.08859H0.807991C0.67318 5.08859 0.563965 5.19781 0.563965 5.33262V7.81414C0.563995 7.94892 0.67321 8.0582 0.808022 8.0582Z" fill="#385C8E"/>
</svg>
