<svg width="16" height="14" viewBox="0 0 16 14" fill="none" xmlns="http://www.w3.org/2000/svg">
<path fill-rule="evenodd" clip-rule="evenodd" d="M10.9825 2.00001C12.1622 2.00196 13.2313 2.6952 13.7144 3.77143C14.1976 4.84766 14.0051 6.10719 13.2225 6.99C12.6725 7.60999 7.98254 12 7.98254 12C7.98254 12 3.28253 7.60999 2.73254 6.97999C2.24744 6.43482 1.98041 5.72981 1.9826 5.00001C1.9826 3.34315 3.32574 2.00001 4.9826 2.00001C6.63946 2.00001 7.9826 3.34315 7.9826 5.00001C7.9826 3.34315 9.32574 2.00001 10.9825 2.00001ZM10.9825 8.10398e-06C9.90039 -0.00194502 8.84711 0.34919 7.98254 1.00007C5.93133 -0.524467 3.06061 -0.256706 1.32672 1.62086C-0.407166 3.49842 -0.446046 6.38129 1.23657 8.30494C1.79858 8.94898 5.49756 12.413 6.61755 13.459C7.38635 14.1779 8.58075 14.1779 9.34955 13.459C10.4656 12.414 14.1495 8.95899 14.7186 8.31599C16.0227 6.84418 16.343 4.7447 15.5372 2.951C14.7313 1.1573 12.949 0.00244951 10.9825 8.10398e-06Z" fill="#33A0FF"/>
</svg>
