<svg width="191" height="26" viewBox="0 0 191 26" fill="none" xmlns="http://www.w3.org/2000/svg">
<path d="M13.032 24.9998C17.604 24.9998 20.016 22.1198 20.016 18.5198C20.016 15.4958 17.964 13.0118 15.408 12.6158C17.676 12.1478 19.548 10.1318 19.548 7.1078C19.548 3.9038 17.208 0.987797 12.636 0.987797H0V24.9998H13.032ZM11.52 10.5998H5.112V5.3798H11.52C13.248 5.3798 14.328 6.4958 14.328 8.0078C14.328 9.5198 13.248 10.5998 11.52 10.5998ZM11.7 20.5718H5.112V14.9918H11.7C13.716 14.9918 14.796 16.2878 14.796 17.7998C14.796 19.5278 13.644 20.5718 11.7 20.5718ZM38.844 25.4318C46.116 25.4318 51.408 20.2478 51.408 13.0118C51.408 5.7758 46.116 0.591797 38.844 0.591797C31.608 0.591797 26.316 5.7758 26.316 13.0118C26.316 20.2478 31.608 25.4318 38.844 25.4318ZM38.844 20.8958C34.416 20.8958 31.572 17.4758 31.572 13.0118C31.572 8.5118 34.416 5.1278 38.844 5.1278C43.272 5.1278 46.152 8.5118 46.152 13.0118C46.152 17.4758 43.272 20.8958 38.844 20.8958ZM69.444 25.4318C76.752 25.4318 80.28 21.3638 80.28 15.3878V0.987797H75.06V15.2438C75.06 18.5918 73.152 20.8958 69.444 20.8958C65.736 20.8958 63.792 18.5918 63.792 15.2438V0.987797H58.608V15.4238C58.608 21.3278 62.136 25.4318 69.444 25.4318ZM110.088 24.9998V0.987797H104.976V16.0718L93.852 0.987797H88.596V24.9998H93.708V9.3398L105.156 24.9998H110.088ZM130.068 25.4318C135.36 25.4318 138.384 22.5158 140.112 19.5278L135.72 17.4038C134.712 19.3838 132.552 20.8958 130.068 20.8958C125.712 20.8958 122.544 17.5478 122.544 13.0118C122.544 8.4758 125.712 5.1278 130.068 5.1278C132.552 5.1278 134.712 6.6758 135.72 8.6198L140.112 6.4598C138.42 3.4718 135.36 0.591797 130.068 0.591797C122.868 0.591797 117.288 5.6318 117.288 13.0118C117.288 20.3918 122.868 25.4318 130.068 25.4318ZM163.764 24.9998V20.4998H151.884V15.0638H163.512V10.5638H151.884V5.4878H163.764V0.987797H146.772V24.9998H163.764ZM190.8 24.9998L185.4 15.8558C187.992 15.2438 190.656 12.9758 190.656 8.7278C190.656 4.2638 187.596 0.987797 182.592 0.987797H171.36V24.9998H176.472V16.4678H180.216L184.932 24.9998H190.8ZM181.836 11.9678H176.472V5.4878H181.836C183.888 5.4878 185.436 6.7118 185.436 8.7278C185.436 10.7438 183.888 11.9678 181.836 11.9678Z" fill="#C1C8CE"/>
</svg>
