<svg width="48" height="55" viewBox="0 0 48 55" fill="none" xmlns="http://www.w3.org/2000/svg">
<path d="M38.4098 11.4742L35.8003 14.8265C41.4252 19.2033 44.2309 26.2892 43.1235 33.321C42.3123 38.4808 39.5398 43.0159 35.3174 46.0915C31.0936 49.1655 25.9268 50.415 20.767 49.5996C10.1155 47.9225 2.81206 37.8926 4.4864 27.2403C5.29761 22.0799 8.07096 17.5446 12.2939 14.4697C15.981 11.7857 20.3868 10.4966 24.8797 10.7523L21.2075 14.6048L23.9317 17.2046L29.7285 11.1188L29.7299 11.121L32.3268 8.39403L29.6046 5.7971L29.6032 5.79794L23.5197 0L20.9208 2.72701L24.8847 6.50252C19.4963 6.24765 14.2184 7.81508 9.79415 11.0365C4.65417 14.779 1.27925 20.2989 0.291057 26.5809C-1.74729 39.546 7.14139 51.7558 20.1065 53.7961C21.3596 53.9937 22.6122 54.0906 23.8566 54.0906C28.8506 54.0906 33.7031 52.5209 37.8172 49.5248C42.9577 45.7817 46.3321 40.2618 47.3203 33.9812C48.6683 25.4241 45.2537 16.7995 38.4098 11.4742Z" fill="#FF6875"/>
<path d="M26.1376 42.4226L26.1379 39.9772C29.0363 39.6537 31.8562 37.8228 31.8562 34.3468C31.8562 29.6239 27.4647 29.0823 24.257 28.6873C22.206 28.4422 20.6364 28.1578 20.6364 26.9153C20.6364 25.1879 23.0711 25.0017 24.1182 25.0017C25.6722 25.0017 27.3304 25.7322 27.8937 26.6646L28.0573 26.9356L31.2792 25.4447L31.1199 25.1198C29.9192 22.6652 27.7675 21.955 26.137 21.6684V19.5161H22.3643V21.6591C18.8521 22.1772 16.7663 24.1266 16.7663 26.9153C16.7663 31.4626 20.8952 31.924 23.9075 32.2618C26.592 32.5784 27.8418 33.2416 27.8418 34.3468C27.8418 36.458 24.918 36.623 24.0216 36.623C22.0266 36.623 20.1029 35.6275 19.5466 34.3058L19.4084 33.9794L15.9081 35.4634L16.0477 35.7897C17.0842 38.2158 19.3207 39.7361 22.3649 40.0956V42.4226H26.1376Z" fill="#FF6875"/>
</svg>
