<svg width="70" height="46" viewBox="0 0 70 46" fill="none" xmlns="http://www.w3.org/2000/svg">
<path d="M69.7222 23.4742C69.7222 23.4611 69.7216 23.4481 69.7214 23.4351C69.7023 22.5613 69.0006 21.8651 68.1163 21.8651H67.6948L61.186 9.28111C60.9114 8.74976 60.3637 8.4189 59.7591 8.41872L48.6468 8.41642L49.0707 5.05599C49.1917 3.71307 48.7765 2.44507 47.9014 1.48532C47.028 0.527565 45.8085 0 44.4674 0H9.97856C9.11139 0 8.37475 0.670959 8.29208 1.53599L7.94636 4.30466H27.5964C28.8723 4.30466 29.8796 5.33899 29.8463 6.61491C29.8128 7.89084 28.7514 8.92517 27.4754 8.92517H20.9211C20.9222 8.92847 20.9234 8.93177 20.9245 8.93491H1.67715C0.774835 8.93491 0.0241674 9.66627 0.000569851 10.5686C-0.0230278 11.4709 0.689191 12.2023 1.59151 12.2023H27.073C28.2558 12.3844 29.1395 13.4074 29.107 14.6459C29.0713 16.0059 27.9454 17.1087 26.5876 17.1201H9.02013C8.10874 17.1201 7.35064 17.8589 7.32672 18.7703C7.30279 19.6817 8.02227 20.4205 8.93366 20.4205H26.2942C27.4944 20.5877 28.3957 21.6189 28.3631 22.8694C28.3273 24.2364 27.19 25.3446 25.8229 25.3446H5.90641V25.3465H4.23296C3.32156 25.3465 2.56347 26.0852 2.53954 26.9966C2.51561 27.908 3.23493 28.6468 4.14649 28.6468H5.59073L5.02587 34.5574C4.90475 35.9002 5.31993 37.1682 6.19519 38.1279C7.06846 39.0859 8.28811 39.6133 9.62922 39.6133H10.8751C11.4688 43.0084 14.4062 45.5736 17.9991 45.5736C21.592 45.5736 24.6637 43.0084 25.4348 39.6134H40.9827C42.2398 39.6134 43.4299 39.1327 44.3632 38.3458C45.2167 39.1649 46.3481 39.6134 47.5834 39.6134H47.8392C48.4327 43.0084 51.3701 45.5736 54.9632 45.5736C58.5561 45.5736 61.6278 43.0084 62.3989 39.6134H63.4251C66.0986 39.6134 68.4696 37.44 68.7105 34.7685L69.7161 23.6288C69.7174 23.6138 69.7168 23.5989 69.7178 23.5837C69.7194 23.5608 69.7226 23.5384 69.7232 23.5153C69.7236 23.5014 69.7222 23.488 69.7222 23.4742ZM18.0856 42.2732C15.8108 42.2732 14.0085 40.4227 14.068 38.1479C14.1276 35.873 16.0268 34.0223 18.3016 34.0223C20.5764 34.0223 22.3785 35.873 22.3189 38.1479C22.2594 40.4227 20.3603 42.2732 18.0856 42.2732ZM55.0496 42.2732C52.7749 42.2732 50.9727 40.4227 51.0321 38.1479C51.0917 35.873 52.9909 34.0223 55.2657 34.0223C57.5404 34.0223 59.3428 35.873 59.283 38.1479C59.2235 40.4227 57.3244 42.2732 55.0496 42.2732ZM65.4227 34.5574C65.3369 35.5091 64.4618 36.3131 63.5118 36.3131H62.4017C61.6667 33.103 58.8136 30.7219 55.352 30.7219C51.8904 30.7219 48.9126 33.103 48.0096 36.3131H47.6699C47.2504 36.3131 46.8761 36.1558 46.6156 35.87C46.3534 35.5825 46.2299 35.1913 46.268 34.7683L48.3488 11.7168L53.1275 11.7178L52.3701 20.1093C52.2488 21.452 52.6638 22.72 53.5389 23.6798C54.4122 24.6379 55.6322 25.1656 56.9734 25.1656H66.2702L65.4227 34.5574Z" fill="#FF6875"/>
</svg>
