<svg width="47" height="62" viewBox="0 0 47 62" fill="none" xmlns="http://www.w3.org/2000/svg">
<path d="M0.000488281 48.6266V61.4736H46.8262V48.6266C46.8262 45.6475 44.4024 43.2236 41.4232 43.2236H5.40346C2.42432 43.2236 0.000488281 45.6475 0.000488281 48.6266ZM3.60247 48.6266C3.60247 47.6337 4.41057 46.8256 5.40346 46.8256H7.20445V57.8717H3.60247V48.6266ZM10.8064 46.8256H15.4632L23.4134 54.7758L31.3635 46.8256H36.0203V57.8717H10.8064L10.8064 46.8256ZM43.2242 48.6266V57.8717H39.6223V46.8256H41.4232C42.4161 46.8256 43.2242 47.6337 43.2242 48.6266ZM26.2691 46.8256L23.4133 49.6814L20.5575 46.8256H26.2691Z" fill="#FF6875"/>
<path d="M36.8842 36.0198H39.6223V32.4178H41.4232C44.4024 32.4178 46.8262 29.994 46.8262 27.0148V23.4129C46.8262 10.503 36.3233 0 23.4134 0C10.5034 0 0.000488281 10.503 0.000488281 23.4129V27.0148C0.000488281 29.994 2.42432 32.4178 5.40346 32.4178H8.13168C10.3618 38.7067 16.3693 43.2237 23.4133 43.2237C29.0212 43.2237 33.9726 40.3605 36.8842 36.0198ZM41.4232 28.8158H39.5214C39.5876 28.2244 39.6223 27.6236 39.6223 27.0148V23.4129C39.6223 22.8041 39.5876 22.2033 39.5214 21.6119H41.4232C42.4161 21.6119 43.2242 22.42 43.2242 23.4129V27.0148C43.2242 28.0077 42.4161 28.8158 41.4232 28.8158ZM23.4134 3.60198C32.5041 3.60198 40.1832 9.75723 42.5048 18.1187C42.1554 18.0474 41.7938 18.0099 41.4233 18.0099H38.695C36.4649 11.7209 30.4574 7.20393 23.4134 7.20393C16.3694 7.20393 10.3619 11.7209 8.13177 18.0099H5.40355C5.03303 18.0099 4.67143 18.0474 4.32202 18.1187C6.6436 9.75721 14.3226 3.60198 23.4134 3.60198ZM33.7559 16.2126C31.4109 19.567 27.5406 21.6119 23.4134 21.6119H10.9354C11.8124 15.5105 17.0733 10.8059 23.4134 10.8059C27.6898 10.8059 31.4751 12.9469 33.7559 16.2126ZM5.40341 28.8158C4.41052 28.8158 3.60242 28.0077 3.60242 27.0148V23.4129C3.60242 22.42 4.41052 21.6119 5.40341 21.6119H7.30523C7.2391 22.2033 7.20439 22.8041 7.20439 23.4129V27.0148C7.20439 27.6236 7.2391 28.2244 7.30523 28.8158H5.40341ZM10.8064 27.0148V25.2139H23.4133C28.0579 25.2139 32.4492 23.1999 35.4935 19.8067C35.8359 20.9496 36.0202 22.1601 36.0202 23.4129V27.0148C36.0202 28.9472 35.5826 30.7791 34.8022 32.4178H28.8162L27.2338 30.8354C26.2132 31.8559 24.8564 32.4178 23.4133 32.4178C21.9701 32.4178 20.6133 31.8559 19.5927 30.8354L17.046 33.3821C18.7467 35.0832 21.0082 36.0198 23.4133 36.0198C25.3883 36.0198 27.2662 35.3871 28.8162 34.2193V36.0198H32.2264C29.9517 38.2466 26.8403 39.6218 23.4133 39.6218C16.4617 39.6218 10.8064 33.9665 10.8064 27.0148Z" fill="#FF6875"/>
</svg>
