<svg width="16" height="12" viewBox="0 0 16 12"  xmlns="http://www.w3.org/2000/svg">
<path d="M15.1244 1.40748C14.5802 1.64618 14.0004 1.80439 13.3959 1.88122C14.0178 1.50991 14.4924 0.926434 14.7156 0.223156C14.1358 0.568844 13.4956 0.81303 12.8133 0.949295C12.2628 0.363075 11.4781 0 10.6221 0C8.96128 0 7.62422 1.34805 7.62422 3.00062C7.62422 3.2384 7.64434 3.46704 7.69373 3.6847C5.19977 3.56306 2.99298 2.36775 1.5105 0.546898C1.25169 0.995941 1.09987 1.50991 1.09987 2.06321C1.09987 3.10213 1.63488 4.02308 2.43236 4.55626C1.9504 4.54711 1.47758 4.40719 1.07701 4.18678C1.07701 4.19593 1.07701 4.20781 1.07701 4.2197C1.07701 5.67749 2.11684 6.88834 3.48043 7.16728C3.23624 7.23404 2.97011 7.26605 2.69392 7.26605C2.50186 7.26605 2.30798 7.25507 2.12599 7.21483C2.51467 8.40282 3.61761 9.27621 4.92906 9.30457C3.90843 10.103 2.61252 10.584 1.20962 10.584C0.963603 10.584 0.727651 10.573 0.491699 10.5429C1.82053 11.3998 3.39537 11.8891 5.09368 11.8891C10.6139 11.8891 13.6319 7.31635 13.6319 3.35272C13.6319 3.22011 13.6273 3.09208 13.6209 2.96495C14.2163 2.54243 14.7165 2.01475 15.1244 1.40748Z" fill="#03A9F4"/>
</svg>
