<svg aria-hidden="true" style="position: absolute; width: 0; height: 0; overflow: hidden;" version="1.1" xmlns="http://www.w3.org/2000/svg" xmlns:xlink="http://www.w3.org/1999/xlink">
<defs>
<symbol id="icon-lines" viewBox="0 0 32 32">
<path d="M7 10h18c0.552 0 1-0.448 1-1s-0.448-1-1-1h-18c-0.552 0-1 0.448-1 1s0.448 1 1 1zM25 12h-18c-0.552 0-1 0.448-1 1s0.448 1 1 1h18c0.552 0 1-0.448 1-1s-0.448-1-1-1zM25 16h-18c-0.552 0-1 0.448-1 1s0.448 1 1 1h18c0.552 0 1-0.448 1-1s-0.448-1-1-1zM25 20h-18c-0.552 0-1 0.448-1 1s0.448 1 1 1h18c0.552 0 1-0.448 1-1s-0.448-1-1-1z"></path>
</symbol>
<symbol id="icon-grid" viewBox="0 0 32 32">
<path d="M8 12h4v-4h-4v4zM14 12h4v-4h-4v4zM20 8v4h4v-4h-4zM8 18h4v-4h-4v4zM14 18h4v-4h-4v4zM20 18h4v-4h-4v4zM8 24h4v-4h-4v4zM14 24h4v-4h-4v4zM20 24h4v-4h-4v4z"></path>
</symbol>
</defs>
</svg>
